Coordinates
version=1
nRows=19
nColumns=36
inDegrees=yes

Units are S.I. units (second, meters, Newtons, ...)
If the header above contains a line with 'inDegrees', this indicates whether rotational values are in degrees (yes) or radians (no).

endheader
time	pelvis_tilt	pelvis_list	pelvis_rotation	pelvis_tx	pelvis_ty	pelvis_tz	hip_flexion_r	hip_adduction_r	hip_rotation_r	knee_angle_r	knee_angle_r_beta	ankle_angle_r	subtalar_angle_r	mtp_angle_r	hip_flexion_l	hip_adduction_l	hip_rotation_l	knee_angle_l	knee_angle_l_beta	ankle_angle_l	subtalar_angle_l	mtp_angle_l	lumbar_extension	lumbar_bending	lumbar_rotation	arm_flex_r	arm_add_r	arm_rot_r	elbow_flex_r	pro_sup_r	arm_flex_l	arm_add_l	arm_rot_l	elbow_flex_l	pro_sup_l
      0.00000000	     -2.10887374	      1.75818368	      3.49321780	     -0.32876161	      1.31097655	     -0.02383114	     -0.62440077	     -0.31033937	     -3.08088382	      7.27616380	      0.12699302	      5.68753477	    -14.24356551	     -4.93212071	      0.47398977	     -0.77100373	      2.20300940	      6.45735231	      0.11270206	      5.51048193	     -7.25790030	     -4.93212071	     -5.19026895	     -0.89805897	     -2.55944409	      3.03921936	     -5.70092846	     17.22236621	     23.94155872	     76.11720956	      1.28850912	    -11.08143823	     21.39158974	     26.15533148	     68.12374637
      0.01666670	     -4.21777493	      1.71846203	      3.47838472	     -0.32697091	      1.30933976	     -0.02477376	      1.84520025	     -0.26798606	     -3.62418986	      7.70432445	      0.13446583	      8.24108189	    -12.39577511	     -6.10851776	      2.49412070	     -0.29838478	      1.85045716	      5.27795434	      0.09211768	      5.22215194	     -5.67495763	     -6.10851776	     -2.54597018	     -0.83888580	     -2.56375553	      2.18374655	     -5.20069507	     13.44267253	     24.41450371	     79.45704087	      0.45227613	    -10.18978892	     17.61420967	     26.39277586	     72.41160840
      0.03333330	     -5.07181844	      2.44675380	      2.96633004	     -0.32668592	      1.30808864	     -0.02383307	      2.05354283	     -1.03654239	     -4.88934647	      6.48996734	      0.11327130	      8.61913176	    -10.61233500	     -6.36080722	      3.12893933	      0.44828702	      1.02801508	      4.53100881	      0.07908102	      5.19874904	     -4.36454667	     -6.36080722	     -1.48482740	     -1.91989908	     -2.34030152	      1.79340943	     -4.52136241	     10.91351720	     25.12293145	     78.93118619	     -0.02179561	    -10.37621566	     16.28506577	     26.85725674	     72.38287937
      0.05000000	     -4.55539001	      2.70812076	      2.75126419	     -0.31988378	      1.30857222	     -0.02682866	      0.82539773	     -1.39189816	     -5.41801499	      5.59895243	      0.09772015	      8.93944235	     -9.30858753	     -6.40526137	      1.57717731	      0.75911616	      0.25769961	      3.43912604	      0.06002407	      4.36731823	     -4.13514741	     -6.40526137	     -1.77040152	     -2.22475120	     -2.18007274	      1.30539412	     -4.28686696	      9.26729864	     25.36938707	     79.19233669	     -0.21081998	    -10.38945169	     14.87053045	     27.03598176	     72.62677975
      0.06666670	     -4.64010858	      2.72388517	      2.54691078	     -0.32680663	      1.30875197	     -0.02298516	      0.89152288	     -1.38120811	     -5.51817420	      5.40106362	      0.09426634	      9.05703598	     -9.34544866	     -6.40706813	      1.59878461	      0.88595872	      0.26152720	      3.32622498	      0.05805358	      4.40057296	     -4.13559047	     -6.40706813	     -1.72169758	     -2.17067062	     -2.06581394	      1.40425984	     -4.23686967	      9.21329676	     25.44829178	     79.20860060	     -0.12426578	    -10.58071179	     14.75492410	     27.06431780	     72.62949567
      0.08333330	     -4.34158868	      2.84093057	      2.43718229	     -0.32635945	      1.31429994	     -0.02266711	      0.40591745	     -1.39003278	     -5.51481763	      5.02849782	      0.08776384	      9.02137093	     -8.93030166	     -6.79509942	      1.05184454	      1.03273801	     -0.04152409	      2.80096124	      0.04888600	      3.98494579	     -3.99768339	     -6.79509942	     -2.13609526	     -2.36907178	     -1.81328577	      1.18313322	     -3.85503121	      6.25842555	     26.07583196	     84.17066231	     -0.65955796	    -10.04167293	      9.88211675	     27.63809266	     76.81647091
      0.10000000	     -4.42580942	      2.95604517	      2.31706144	     -0.32682757	      1.31404047	     -0.02264260	      0.48451836	     -1.48805807	     -5.44910323	      4.98034341	      0.08692339	      8.90714977	     -9.20437396	     -6.82693317	      1.07763778	      1.24899462	      0.21542430	      2.47653389	      0.04322367	      4.22452290	     -3.43935796	     -6.82693317	     -2.18212358	     -2.50548362	     -1.59020893	      1.11046022	     -3.92477754	      6.33114921	     26.20285597	     83.51624188	     -0.68837179	    -10.09543201	      9.71772936	     27.81263117	     76.23729540
      0.11666670	     -4.19613639	      3.00910346	      2.27659101	     -0.32666677	      1.31382535	     -0.02245757	      0.06527044	     -1.41745863	     -5.33177653	      4.60755029	      0.08041692	      8.81590240	     -9.17963398	     -6.91999406	      0.78130567	      1.30593403	      0.16411055	      2.22081323	      0.03876050	      4.28886118	     -2.97337148	     -6.91999406	     -2.42330550	     -2.59211280	     -1.56728535	      1.24615437	     -3.87609136	      6.74322071	     25.97138812	     81.96655561	     -0.65018497	    -10.04179337	      9.44843310	     27.69650751	     75.03629286
      0.13333330	     -4.24479106	      3.03235467	      2.27807855	     -0.32746388	      1.31138312	     -0.02248927	      0.11181422	     -1.38980181	     -5.31784017	      4.67751984	      0.08163812	      8.83384905	     -9.30082050	     -7.06910373	      0.87471482	      1.34630533	      0.26165238	      2.21574001	      0.03867196	      4.42919627	     -3.22235327	     -7.06910373	     -2.33362668	     -2.65911207	     -1.55241819	      1.43955868	     -4.13232038	      8.68969618	     25.59760959	     80.73758764	     -0.49806994	    -10.01436560	      9.65439206	     27.28690372	     73.94326395
      0.15000000	     -4.07768615	      3.04477639	      2.28634977	     -0.32691896	      1.31382345	     -0.02234017	     -0.06270510	     -1.36391831	     -5.46597838	      4.77033487	      0.08325805	      8.71722788	     -9.29781661	     -7.15498741	      0.63024618	      1.29623271	      0.22748652	      2.16567767	      0.03779821	      4.32986118	     -3.49531691	     -7.15498741	     -2.46671272	     -2.72811908	     -1.57866417	      1.55620591	     -4.19518270	      9.48622442	     25.39955107	     79.88438946	     -0.48758706	    -10.02343971	      9.72702352	     27.33979878	     73.33300006
      0.16666670	     -3.83147803	      3.01074050	      2.23698176	     -0.32778108	      1.31173657	     -0.02245076	     -0.21641023	     -1.34026110	     -5.68076134	      4.84751661	      0.08460513	      8.77895056	     -9.01427863	     -7.22277277	      0.31898840	      1.20956911	      0.02042950	      2.20281432	      0.03844636	      4.31380345	     -3.56595897	     -7.22277277	     -2.73331622	     -2.67458504	     -1.56748907	      1.63208123	     -4.24402053	      9.62555157	     25.41540056	     78.30346751	     -0.60381459	     -9.94791285	      9.47939535	     27.71768667	     72.17499925
      0.18333330	     -3.78219568	      3.04116054	      2.21648666	     -0.32760217	      1.31194200	     -0.02865036	     -0.22115929	     -1.51272873	     -5.75504215	      4.96513097	      0.08665788	      8.62239325	     -9.02962420	     -7.22315394	      0.22187960	      1.32448791	     -0.06203200	      2.27603231	      0.03972426	      4.19088832	     -3.58874181	     -7.22315394	     -2.66059379	     -2.57189609	     -1.58257295	      1.58667905	     -4.46235224	      9.62332590	     25.39210718	     78.33213576	     -0.67346930	     -9.81006239	      9.50885651	     27.72844937	     72.20049166
      0.20000000	     -3.61180290	      3.04807421	      2.05125476	     -0.32848658	      1.30999887	     -0.02842889	     -0.20307061	     -1.66043721	     -5.63941317	      5.22806086	      0.09124688	      8.29503304	     -9.45852483	     -7.28117605	     -0.02961627	      1.34173323	     -0.82690583	      2.41286569	      0.04211245	      3.90389062	     -4.27447397	     -7.28117605	     -2.99961066	     -2.44669112	     -1.46543258	      1.57030216	     -4.76668805	     10.01754169	     25.81728359	     76.89338052	     -0.51107059	     -9.62786045	      9.61711010	     28.07913375	     71.18142447
      0.21666670	     -3.82884537	      3.07100317	      2.19304930	     -0.32763295	      1.30733450	     -0.02840029	      0.11897767	     -1.84625102	     -5.92041877	      5.47511628	      0.09555881	      8.25621817	     -9.35079263	     -7.38225777	      0.16348631	      1.41801838	     -0.59389941	      2.51950627	      0.04397368	      3.16901583	     -5.99286098	     -7.38225777	     -2.67871881	     -2.35240852	     -1.49768395	      1.24248770	     -4.97631549	      8.83732824	     26.14095626	     83.50311807	     -0.25560894	     -9.56505958	      9.32603706	     27.70808131	     76.98541096
      0.23333330	     -3.86418565	      3.09347379	      2.23702898	     -0.32798666	      1.31121955	     -0.02845813	      0.27625756	     -1.99559001	     -6.01937861	      5.62268092	      0.09813429	      8.18293389	     -9.30511601	     -7.42050470	      0.13919200	      1.48048479	     -0.87617130	      2.61280114	      0.04560198	      2.61838336	     -6.90713152	     -7.42050470	     -2.74039282	     -2.24203121	     -1.70853896	      1.27517932	     -5.19227507	      9.59420784	     26.21951354	     81.70400301	     -0.15382483	     -9.65319258	      9.95601173	     27.75947753	     75.71210107
      0.25000000	     -3.78610918	      3.04642227	      2.40148766	     -0.32017619	      1.31106833	     -0.02595977	     -0.00873706	     -1.94092288	     -6.10180846	      5.44097527	      0.09496293	      8.23570746	     -9.11481617	     -7.42236067	     -0.11981271	      1.41660776	     -1.06656592	      2.53876243	      0.04430976	      2.31506880	     -7.04558911	     -7.42236067	     -2.70528990	     -2.14758060	     -1.97405697	      0.96513045	     -5.21993905	      9.43487079	     26.45860637	     81.85744251	     -0.39012352	     -9.71966703	      9.87393309	     27.87260318	     75.87240133
      0.26666670	     -3.74636130	      2.94342858	      2.42761803	     -0.32082418	      1.31178316	     -0.02618090	     -0.23226864	     -1.80634900	     -6.30088718	      5.38891512	      0.09405431	      8.45448492	     -8.75315330	     -7.43216150	     -0.29245707	      1.31944273	     -1.08196782	      2.33573233	      0.04076622	      2.36568040	     -6.68643051	     -7.43216150	     -2.62196483	     -2.03855843	     -2.06733515	      0.78356543	     -5.30806376	      9.70295688	     26.65233209	     81.21355391	     -0.69219118	     -9.68557206	      9.81149824	     27.86446883	     75.48518519
      0.28333330	     -3.74007152	      2.88598366	      2.44594815	     -0.31993134	      1.31465836	     -0.02614790	     -0.50572901	     -1.67593946	     -6.32223581	      5.14618736	      0.08981791	      8.57054998	     -8.60651878	     -7.48540542	     -0.40219546	      1.26819005	     -0.96547192	      2.04237446	      0.03564616	      2.41757362	     -6.30088246	     -7.48540542	     -2.50617859	     -2.00898289	     -2.20627183	      0.65286925	     -5.16081198	      8.72562289	     26.56678206	     84.26515171	     -1.02901759	     -9.59653257	      8.41818759	     28.06494673	     78.39826759
      0.30000000	     -3.76559497	      2.85699875	      2.42121675	     -0.32773729	      1.31504158	     -0.02872380	     -0.47500037	     -1.68173963	     -6.40678281	      5.10087151	      0.08902700	      8.58378350	     -8.65404140	     -7.48543032	     -0.28071238	      1.30172703	     -0.84369162	      1.97635090	      0.03449383	      2.45629261	     -6.24198255	     -7.48543032	     -2.47598661	     -1.96788821	     -2.10092373	      0.85384786	     -5.19977548	      8.72320934	     26.63796543	     84.26501996	     -1.01815319	     -9.55935062	      8.42554496	     28.09474550	     78.40321533
